<svg xmlns="http://www.w3.org/2000/svg" xmlns:xlink="http://www.w3.org/1999/xlink" viewBox="0 0 1765.082 1360.765"><defs><style>.a{fill:#6767f4;}.b{fill:#e5455e;}.c{opacity:0.247;fill:url(#a);}</style><pattern id="a" preserveAspectRatio="xMidYMid slice" width="100%" height="100%" viewBox="0 0 800 1073"><image width="800" height="1073" xlink:href="background-image.png"/></pattern></defs><g transform="translate(-220.845 -117.435)"><rect class="a" width="46" height="185" transform="matrix(0.848, 0.53, -0.53, 0.848, 318.88, 815.048)"/><rect class="b" width="56" height="215" transform="matrix(0.848, 0.53, -0.53, 0.848, 411.88, 745.048)"/><rect class="a" width="27" height="124" transform="matrix(0.848, 0.53, -0.53, 0.848, 455.88, 776.048)"/><rect class="b" width="34" height="190" transform="matrix(0.485, 0.875, -0.875, 0.485, 956.106, 574.444)"/><rect class="a" width="40" height="174" transform="translate(790.199 594.073) rotate(-30)"/><path class="c" d="M444.715,12.706,769.3,156.85l204.115,766.8L24.6,1267.19Z" transform="translate(865.335 223.454) rotate(-7)"/><rect class="a" width="3" height="716" transform="translate(1283.224 723.471) rotate(72)"/><rect class="b" width="2" height="546" transform="matrix(0.309, 0.951, -0.951, 0.309, 1083.605, 814.758)"/><rect class="a" width="40" height="174" transform="matrix(0.809, 0.588, -0.588, 0.809, 1215.976, 348.277)"/><rect class="b" width="28" height="240" transform="matrix(0.799, 0.602, -0.602, 0.799, 1296.991, 312.359)"/><rect class="b" width="35" height="98" transform="matrix(0.799, 0.602, -0.602, 0.799, 1219.991, 471.359)"/><rect class="a" width="32" height="260" transform="translate(1627.697 257.173) rotate(-38)"/><rect class="b" width="28" height="240" transform="translate(1682.021 163.603) rotate(-22)"/><rect class="b" width="35" height="98" transform="matrix(0.799, 0.602, -0.602, 0.799, 1697.991, 281.359)"/><rect class="b" width="19" height="89" transform="matrix(0.891, 0.454, -0.454, 0.891, 1810.131, 561.42)"/><rect class="a" width="34" height="181" transform="translate(1862.307 540.042) rotate(27)"/></g></svg>